<svg width="150" height="150" viewBox="0 0 150 150" fill="none" xmlns="http://www.w3.org/2000/svg">
<g clip-path="url(#clip0_8_331)">
<path d="M0 130.659C0 141.342 8.65957 150 19.3412 150H130.658C141.342 150 150 141.34 150 130.659V19.3418C150 8.6584 141.34 0 130.659 0H19.3418C8.6584 0 0 8.65957 0 19.3412V130.659Z" fill="#563D7C"/>
<path d="M62.202 66.3504V45.1084H80.8998C82.6811 45.1084 84.3979 45.2566 86.0514 45.5537C87.7049 45.8502 89.168 46.3799 90.44 47.1434C91.7115 47.9068 92.7293 48.9668 93.4928 50.3232C94.2557 51.6803 94.6377 53.4188 94.6377 55.5381C94.6377 59.3543 93.4928 62.1105 91.2029 63.8063C88.9137 65.5025 85.9881 66.3504 82.4262 66.3504H62.202ZM42.2314 29.5898V120.41H86.2424C90.3129 120.41 94.2773 119.902 98.1357 118.884C101.994 117.866 105.428 116.297 108.439 114.178C111.449 112.058 113.845 109.322 115.625 105.973C117.407 102.623 118.297 98.659 118.297 94.0799C118.297 88.398 116.919 83.5436 114.163 79.5158C111.407 75.4875 107.23 72.668 101.633 71.0566C105.704 69.1066 108.778 66.6047 110.856 63.552C112.933 60.4992 113.972 56.6836 113.972 52.1039C113.972 47.8641 113.272 44.3027 111.873 41.4193C110.474 38.5365 108.502 36.2256 105.958 34.4871C103.414 32.7486 100.362 31.4977 96.7998 30.7348C93.2385 29.9713 89.2951 29.5898 84.9703 29.5898H42.2314ZM62.202 104.892V79.9605H83.9525C88.2774 79.9605 91.7543 80.9566 94.3834 82.95C97.0119 84.9428 98.3268 88.2709 98.3268 92.935C98.3268 95.3098 97.9236 97.2598 97.118 98.7861C96.3123 100.312 95.2313 101.521 93.8742 102.411C92.5178 103.302 90.9486 103.938 89.168 104.32C87.3867 104.701 85.5217 104.892 83.5711 104.892H62.202Z" fill="white"/>
</g>
<defs>
<clipPath id="clip0_8_331">
<rect width="150" height="150" fill="white"/>
</clipPath>
</defs>
</svg>
