<svg width="150" height="150" viewBox="0 0 150 150" fill="none" xmlns="http://www.w3.org/2000/svg">
<path d="M27.6656 127.505L17.1375 9.375H132.862L122.32 127.486L74.9296 140.625L27.6656 127.505Z" fill="#1572B6"/>
<path d="M75 130.584L113.297 119.967L122.306 19.0359H75V130.584Z" fill="#33A9DC"/>
<path d="M75 61.8328H94.1719L95.4937 46.9969H75V32.5078H75.0516H111.328L110.981 36.3937L107.423 76.3219H75V61.8328Z" fill="white"/>
<path d="M75.0891 99.4593L75.0234 99.478L58.8891 95.1187L57.8578 83.564H50.0156H43.3125L45.3422 106.312L75.0187 114.553L75.0891 114.534V99.4593Z" fill="#EBEBEB"/>
<path d="M92.9389 75.7078L91.1952 95.1093L75.0374 99.4687V114.544L104.737 106.312L104.958 103.866L107.475 75.7078H92.9389Z" fill="white"/>
<path d="M75.0514 32.5078V41.5078V46.9594V46.9969H40.1014H40.0545L39.7639 43.7391L39.103 36.3937L38.7561 32.5078H75.0514Z" fill="#EBEBEB"/>
<path d="M75 61.8328V70.8328V76.2843V76.3218H59.1141H59.0672L58.7766 73.064L58.1203 65.7187L57.7734 61.8328H75Z" fill="#EBEBEB"/>
</svg>
