<svg width="150" height="150" viewBox="0 0 150 150" fill="none" xmlns="http://www.w3.org/2000/svg">
<path d="M12.1189 81.6244C8.46038 77.9658 8.46038 72.0342 12.1189 68.3756L68.3756 12.1189C72.0342 8.46038 77.9658 8.46038 81.6244 12.1189L137.881 68.3756C141.54 72.0342 141.54 77.9658 137.881 81.6244L81.6244 137.881C77.9658 141.54 72.0342 141.54 68.3756 137.881L12.1189 81.6244Z" fill="#EE513B"/>
<path d="M56.9479 23.7258L51.2512 29.4227L65.9648 44.1364C65.3695 45.4133 65.0372 46.8375 65.0372 48.3393C65.0372 52.6031 67.7161 56.241 71.4825 57.6618V93.6553C67.7161 95.076 65.0372 98.714 65.0372 102.978C65.0372 108.479 69.4968 112.939 74.9981 112.939C80.4993 112.939 84.959 108.479 84.959 102.978C84.959 99.1125 82.7573 95.7609 79.5393 94.11V57.711L93.6042 71.7759C93.0379 73.027 92.7229 74.4159 92.7229 75.8784C92.7229 81.3796 97.1826 85.8393 102.684 85.8393C108.185 85.8393 112.645 81.3796 112.645 75.8784C112.645 70.3771 108.185 65.9174 102.684 65.9174C101.615 65.9174 100.585 66.0857 99.6197 66.3974L84.5142 51.292C84.8034 50.3592 84.959 49.3673 84.959 48.3393C84.959 42.838 80.4993 38.3783 74.9981 38.3783C73.9701 38.3783 72.9787 38.5341 72.0454 38.8232L56.9479 23.7258Z" fill="white"/>
</svg>
