<svg width="150" height="150" viewBox="0 0 150 150" fill="none" xmlns="http://www.w3.org/2000/svg">
<path d="M85.7031 50.77L86.0324 50.9899C89.9031 53.546 92.6784 57.0516 94.5042 61.2875C94.9424 61.9448 94.6502 62.3099 93.7738 62.529L92.2904 62.9085C88.9369 63.7725 86.2755 64.499 82.9662 65.363L81.0786 65.8548C80.3989 66.023 80.2112 65.9523 79.4884 65.1291L79.3864 65.0122C78.3554 63.8436 77.5831 63.0633 76.2172 62.3666L75.9539 62.2369C71.3528 59.9729 66.8979 60.6302 62.735 63.3324C57.7688 66.5458 55.2126 71.293 55.2857 77.2086C55.3587 83.0512 59.3755 87.8714 65.1451 88.6747C70.1113 89.332 74.2741 87.5792 77.5606 83.8546C78.2179 83.0512 78.8022 82.1748 79.5325 81.1524H65.4372C63.9035 81.1524 63.5384 80.2029 64.0496 78.9614L64.3028 78.3654C65.2414 76.1816 66.6972 73.0426 67.6427 71.2478L67.849 70.8616C68.1014 70.4239 68.6141 69.8323 69.6001 69.8323L93.1031 69.8321C94.1587 66.488 95.8713 63.328 98.1558 60.3381C103.487 53.3269 109.914 49.6753 118.605 48.1416C126.054 46.827 133.065 47.5574 139.419 51.8663C145.189 55.81 148.767 61.1414 149.717 68.1526C150.958 78.012 148.11 86.0455 141.318 92.9106C136.498 97.8038 130.582 100.871 123.79 102.259C121.818 102.624 119.846 102.697 117.948 102.916C111.302 102.77 105.24 100.871 100.128 96.4892C96.5321 93.3811 94.0552 89.5611 92.8245 85.1139C91.9706 86.8388 90.9493 88.4908 89.7571 90.0623C84.4987 97.0004 77.6336 101.309 68.9428 102.478C61.7856 103.427 55.1396 102.04 49.297 97.6577C43.8926 93.5679 40.8252 88.1635 40.0219 81.4445C39.0724 73.4839 41.4095 66.3267 46.2296 60.0459C51.4149 53.2539 58.28 48.945 66.6788 47.4113C73.4167 46.1927 79.8732 46.944 85.7031 50.77ZM120.445 61.2355L120.212 61.2875C113.42 62.8212 109.038 67.1301 107.431 73.9952C106.116 79.6917 108.892 85.4613 114.15 87.7983C118.167 89.5511 122.184 89.332 126.054 87.3601C131.824 84.3658 134.964 79.6917 135.329 73.4109C135.256 72.4615 135.256 71.7311 135.11 71.0008C133.81 63.8518 127.298 59.7731 120.445 61.2355ZM34.1062 74.5794C34.3983 74.5794 34.5444 74.7985 34.5444 75.0907L34.3983 76.8434C34.3983 77.1356 34.1062 77.3547 33.8871 77.3547L17.966 77.2816C17.6739 77.2816 17.6009 77.0625 17.7469 76.8434L18.7694 75.0176C18.9154 74.7985 19.2076 74.5794 19.4997 74.5794H34.1062ZM35.7129 67.8604C36.0051 67.8604 36.1511 68.0795 36.0781 68.2986L35.4938 70.0514C35.4208 70.3435 35.1287 70.4896 34.8365 70.4896L0.29213 70.5626C0 70.5626 -0.0730326 70.4166 0.0730326 70.1975L1.60672 68.2256C1.75278 68.0065 2.11794 67.8604 2.41008 67.8604H35.7129ZM39.5106 61.1414C39.8028 61.1414 39.8758 61.3605 39.7297 61.5796L38.4882 63.4785C38.3421 63.6976 37.9769 63.9167 37.7579 63.9167L11.3201 63.8436C11.0279 63.8436 10.9549 63.6976 11.101 63.4785L12.6346 61.5066C12.7807 61.2875 13.1459 61.1414 13.438 61.1414H39.5106Z" fill="#00ACD7"/>
</svg>
