<svg width="150" height="150" viewBox="0 0 150 150" fill="none" xmlns="http://www.w3.org/2000/svg">
<path d="M75.2331 39.5654C106.115 15.591 90.2654 0 90.2654 0C92.6242 24.7846 64.7486 30.6367 57.2762 47.6681C52.1776 59.2898 60.7679 69.4655 75.2228 82.2909C73.945 79.4503 71.9739 76.6903 69.9789 73.8961C63.1731 64.3655 56.0837 54.4369 75.2331 39.5654Z" fill="#E76F00"/>
<path d="M80.1634 87.5485C80.1634 87.5485 89.454 80.0527 82.0965 71.7225C57.1553 43.4619 109.375 30.6367 109.375 30.6367C77.4924 45.9961 82.2521 55.1128 90.2659 66.1885C98.8459 78.0647 80.1634 87.5485 80.1634 87.5485Z" fill="#E76F00"/>
<path d="M107.517 109.901C136.136 95.2773 122.904 81.2241 113.668 83.1174C111.404 83.5805 110.395 83.9823 110.395 83.9823C110.395 83.9823 111.235 82.6876 112.84 82.1269C131.112 75.8105 145.164 100.757 106.942 110.638C106.942 110.638 107.385 110.249 107.517 109.901Z" fill="#5382A1"/>
<path d="M47.9671 91.3917C30.0615 89.0405 57.7851 82.5652 57.7851 82.5652C57.7851 82.5652 47.0189 81.8513 33.7777 88.1452C18.1208 95.5932 72.5067 98.9803 100.659 91.6992C103.586 89.7338 107.632 88.0303 107.632 88.0303C107.632 88.0303 96.1111 90.0535 84.6379 91.0055C70.5993 92.1619 55.5276 92.3874 47.9671 91.3917Z" fill="#5382A1"/>
<path d="M54.78 105.355C44.7948 104.34 51.3328 99.5808 51.3328 99.5808C25.4952 108.014 65.7084 117.577 101.812 107.195C97.9743 105.864 95.534 103.431 95.534 103.431C77.8889 106.772 67.6922 106.665 54.78 105.355Z" fill="#5382A1"/>
<path d="M59.1304 120.465C49.1531 119.337 54.982 116.003 54.982 116.003C31.5278 122.448 69.2479 135.762 99.1092 123.177C94.2182 121.306 90.7162 119.147 90.7162 119.147C77.3957 121.626 71.2176 121.821 59.1304 120.465Z" fill="#5382A1"/>
<path d="M121.588 128.151C121.588 128.151 125.901 131.646 116.837 134.349C99.6005 139.484 45.0981 141.035 29.9575 134.554C24.5149 132.226 34.7214 128.995 37.932 128.316C41.2803 127.603 43.1937 127.736 43.1937 127.736C37.1409 123.543 4.07104 135.969 26.3958 139.528C87.2789 149.237 137.38 135.155 121.588 128.151Z" fill="#5382A1"/>
<path d="M131.25 135.787C130.251 148.569 88.0674 151.258 60.5973 149.529C42.6766 148.398 39.085 145.574 39.0325 145.533C56.184 148.314 85.1012 148.82 108.548 144.481C129.33 140.633 131.25 135.787 131.25 135.787Z" fill="#5382A1"/>
</svg>
