<svg width="150" height="150" viewBox="0 0 150 150" fill="none" xmlns="http://www.w3.org/2000/svg">
<path d="M87.5 118.75H100C106.904 118.75 112.5 113.154 112.5 106.25V91.01C112.5 85.2737 116.404 80.2744 121.968 78.8831L131.437 76.5156C133.014 76.1213 133.014 73.8787 131.437 73.4844L121.968 71.1169C116.404 69.7256 112.5 64.7262 112.5 58.9903V31.25H87.5" stroke="#0E0E0E" stroke-width="2"/>
<path d="M62.5001 31.25H50.0001C43.0965 31.25 37.5001 36.8464 37.5001 43.75V58.9903C37.5001 64.7262 33.5964 69.7256 28.0317 71.1169L18.5634 73.4844C16.9854 73.8787 16.9854 76.1213 18.5634 76.5156L28.0317 78.8831C33.5964 80.2744 37.5001 85.2737 37.5001 91.01V118.75H62.5001" stroke="#0E0E0E" stroke-width="2"/>
</svg>
