<svg width="150" height="150" viewBox="0 0 150 150" fill="none" xmlns="http://www.w3.org/2000/svg">
<path d="M77.9063 140.625L74.386 139.458C74.386 139.458 74.8547 121.645 68.4094 120.394C64.1906 115.481 69.0328 -89.3297 84.4547 119.695C81.5287 121.18 79.2898 123.738 78.2063 126.834C77.6255 131.408 77.525 136.03 77.9063 140.625Z" fill="url(#paint0_linear_8_324)"/>
<path d="M79.8094 123.417C89.1824 116.362 96.3605 106.791 100.509 95.8167C104.658 84.843 105.608 72.917 103.247 61.4251C96.3562 31.0267 80.0391 21.0329 78.2813 17.2173C76.7646 14.8413 75.4701 12.3307 74.4141 9.71729L75.7125 94.4157C75.7125 94.4157 73.0219 120.3 79.8094 123.417Z" fill="url(#paint1_linear_8_324)"/>
<path d="M72.5953 124.542C72.5953 124.542 43.9031 105 45.5625 70.4297C45.7173 60.0077 48.1069 49.7403 52.5699 40.321C57.0329 30.9017 63.4653 22.5499 71.4328 15.8297C72.3639 15.0387 73.1036 14.0469 73.5964 12.929C74.0892 11.811 74.3223 10.5959 74.2781 9.375C76.064 13.2188 75.7734 66.7641 75.9609 73.0266C76.6875 97.3875 74.6062 119.944 72.5953 124.542Z" fill="url(#paint2_linear_8_324)"/>
<defs>
<linearGradient id="paint0_linear_8_324" x1="54.2421" y1="76.1827" x2="94.703" y2="89.913" gradientUnits="userSpaceOnUse">
<stop offset="0.231" stop-color="#999875"/>
<stop offset="0.563" stop-color="#9B9977"/>
<stop offset="0.683" stop-color="#A09F7E"/>
<stop offset="0.768" stop-color="#A9A889"/>
<stop offset="0.837" stop-color="#B7B69A"/>
<stop offset="0.896" stop-color="#C9C7B0"/>
<stop offset="0.948" stop-color="#DEDDCB"/>
<stop offset="0.994" stop-color="#F8F6EB"/>
<stop offset="1" stop-color="#FBF9EF"/>
</linearGradient>
<linearGradient id="paint1_linear_8_324" x1="69.0794" y1="9.11206" x2="86.9671" y2="120.81" gradientUnits="userSpaceOnUse">
<stop stop-color="#48A547"/>
<stop offset="1" stop-color="#3F9143"/>
</linearGradient>
<linearGradient id="paint2_linear_8_324" x1="43.0944" y1="73.8517" x2="91.0973" y2="57.7755" gradientUnits="userSpaceOnUse">
<stop stop-color="#41A247"/>
<stop offset="0.352" stop-color="#4BA74B"/>
<stop offset="0.956" stop-color="#67B554"/>
<stop offset="1" stop-color="#69B655"/>
</linearGradient>
</defs>
</svg>
