<svg width="150" height="150" viewBox="0 0 150 150" fill="none" xmlns="http://www.w3.org/2000/svg">
<path d="M75 114.316C116.421 114.316 150 96.6614 150 74.8828C150 53.1042 116.421 35.4492 75 35.4492C33.5786 35.4492 0 53.1042 0 74.8828C0 96.6614 33.5786 114.316 75 114.316Z" fill="url(#paint0_radial_7_171)"/>
<path d="M75 111.387C114.803 111.387 147.07 95.0434 147.07 74.8828C147.07 54.7223 114.803 38.3789 75 38.3789C35.1967 38.3789 2.92969 54.7223 2.92969 74.8828C2.92969 95.0434 35.1967 111.387 75 111.387Z" fill="#6181B6"/>
<path d="M89.5897 86.7188L93.164 68.3203C93.9843 64.1602 93.2811 61.0547 91.1718 59.1211C89.121 57.2461 85.6054 56.3086 80.4491 56.3086H74.2382L75.996 47.168C76.0546 46.8164 75.996 46.4648 75.7616 46.1719C75.5272 45.8789 75.2343 45.7617 74.8827 45.7617H66.328C65.7421 45.7617 65.2733 46.1719 65.1561 46.6992L61.3475 66.2109C60.996 63.9844 60.1757 62.1094 58.7694 60.5859C56.2499 57.7148 52.3241 56.25 46.9921 56.25H30.5272C29.9413 56.25 29.4725 56.6602 29.3554 57.1875L21.6796 96.7969C21.621 97.1484 21.6796 97.5 21.914 97.793C22.1483 98.0859 22.4413 98.2031 22.7929 98.2031H31.4061C31.9921 98.2031 32.4608 97.793 32.578 97.2656L34.453 87.7148H40.8397C44.1796 87.7148 47.0507 87.3633 49.2186 86.6602C51.5038 85.8984 53.5546 84.668 55.371 82.9688C56.8358 81.6211 58.0663 80.0977 59.0038 78.457L57.4804 86.3672C57.4218 86.7188 57.4804 87.0703 57.7147 87.3633C57.9491 87.6562 58.2421 87.7734 58.5936 87.7734H67.1483C67.7343 87.7734 68.203 87.3633 68.3202 86.8359L72.539 65.1562H78.3983C80.9179 65.1562 81.621 65.625 81.8554 65.8594C82.0311 66.0352 82.3827 66.7383 81.9725 68.9062L78.5741 86.4258C78.5155 86.7773 78.5741 87.1289 78.8085 87.4219C79.0429 87.7148 79.3358 87.832 79.6874 87.832H88.4765C89.0038 87.6562 89.4725 87.2461 89.5897 86.7188ZM49.9804 71.4844C49.453 74.2383 48.4569 76.2305 46.9921 77.3438C45.5272 78.457 43.1249 79.043 39.9608 79.043H36.1522L38.9061 64.8633H43.828C47.4608 64.8633 48.9257 65.625 49.5116 66.2695C50.2733 67.207 50.4491 69.0234 49.9804 71.4844Z" fill="white"/>
<path d="M126.152 60.5859C123.633 57.7148 119.707 56.25 114.375 56.25H97.7929C97.2069 56.25 96.7382 56.6602 96.621 57.1875L88.9452 96.7383C88.8866 97.0898 88.9452 97.4414 89.1796 97.7344C89.414 98.0273 89.7069 98.1445 90.0585 98.1445H98.6718C99.2577 98.1445 99.7265 97.7344 99.8436 97.207L101.719 87.6562H108.105C111.445 87.6562 114.316 87.3047 116.484 86.6016C118.769 85.8398 120.82 84.6094 122.637 82.9102C124.16 81.5039 125.449 79.9219 126.387 78.2227C127.324 76.5234 128.027 74.6484 128.437 72.5977C129.433 67.5 128.672 63.5156 126.152 60.5859ZM117.187 71.4844C116.66 74.2383 115.664 76.2305 114.199 77.3438C112.734 78.457 110.332 79.043 107.168 79.043H103.359L106.113 64.8633H111.035C114.668 64.8633 116.133 65.625 116.719 66.2695C117.539 67.207 117.715 69.0234 117.187 71.4844Z" fill="white"/>
<path d="M43.8281 63.6914C47.1094 63.6914 49.2773 64.2773 50.3906 65.5078C51.5039 66.7383 51.7383 68.7891 51.1523 71.7188C50.5664 74.7656 49.3945 76.9922 47.6953 78.2812C45.9961 79.5703 43.418 80.2148 39.9609 80.2148H34.7461L37.9688 63.6914H43.8281ZM22.8516 96.9727H31.4648L33.5156 86.4844H40.8984C44.1797 86.4844 46.8164 86.1328 48.9258 85.4297C51.0352 84.7266 52.9102 83.6133 54.668 81.9727C56.1328 80.625 57.3047 79.1602 58.1836 77.5781C59.0625 75.9961 59.707 74.2383 60.0586 72.3047C60.9961 67.6172 60.293 63.9844 58.0078 61.3477C55.7227 58.7109 52.0898 57.4219 47.1094 57.4219H30.5273L22.8516 96.9727Z" fill="#000004"/>
<path d="M66.3867 46.9336H74.9414L72.8906 57.4219H80.5078C85.3125 57.4219 88.5938 58.2422 90.4102 59.9414C92.2266 61.6406 92.7539 64.3359 92.0508 68.0859L88.4766 86.4844H79.8047L83.2031 68.9648C83.6133 66.9727 83.4375 65.625 82.793 64.9219C82.1484 64.2188 80.6836 63.8086 78.5156 63.8086H71.6602L67.2656 86.4844H58.7109L66.3867 46.9336Z" fill="#000004"/>
<path d="M111.035 63.6914C114.316 63.6914 116.484 64.2773 117.598 65.5078C118.711 66.7383 118.945 68.7891 118.359 71.7188C117.773 74.7656 116.602 76.9922 114.902 78.2812C113.203 79.5703 110.625 80.2148 107.168 80.2148H101.953L105.176 63.6914H111.035ZM90.0586 96.9727H98.6719L100.723 86.4844H108.105C111.387 86.4844 114.023 86.1328 116.133 85.4297C118.242 84.7266 120.117 83.6133 121.875 81.9727C123.34 80.625 124.512 79.1602 125.391 77.5781C126.27 75.9961 126.914 74.2383 127.266 72.3047C128.203 67.6172 127.5 63.9844 125.215 61.3477C122.93 58.7109 119.297 57.4219 114.316 57.4219H97.7344L90.0586 96.9727Z" fill="#000004"/>
<defs>
<radialGradient id="paint0_radial_7_171" cx="0" cy="0" r="1" gradientUnits="userSpaceOnUse" gradientTransform="translate(45.0303 49.317) scale(98.4933 98.4933)">
<stop stop-color="white"/>
<stop offset="0.5" stop-color="#4C6B97"/>
<stop offset="1" stop-color="#231F20"/>
</radialGradient>
</defs>
</svg>
