<svg width="150" height="150" viewBox="0 0 150 150" fill="none" xmlns="http://www.w3.org/2000/svg">
<path d="M147.164 89.8214C146.292 87.1803 144.007 85.3405 141.052 84.8988C139.659 84.6908 138.063 84.7795 136.176 85.1688C132.885 85.8477 130.443 86.1061 128.662 86.1564C135.387 74.8013 140.856 61.8521 144.004 49.6628C149.094 29.9536 146.374 20.9747 143.195 16.913C134.782 6.16351 122.508 0.388325 107.7 0.211294C99.8008 0.114884 92.8657 1.67457 89.2485 2.79588C85.8802 2.20197 82.2582 1.87008 78.458 1.80861C71.3354 1.69506 65.0415 3.2477 59.6638 6.43897C56.6858 5.43254 51.908 4.01327 46.3898 3.10728C33.4111 0.976526 22.9511 2.63699 15.3001 8.04199C6.03537 14.5864 1.74026 25.9567 2.53472 41.8375C2.78666 46.8797 5.6074 62.2203 10.0483 76.7694C12.6006 85.1316 15.3223 92.0761 18.1377 97.4112C22.1301 104.977 26.402 109.432 31.198 111.032C33.8864 111.927 38.7704 112.554 43.9076 108.277C44.5586 109.065 45.427 109.848 46.5802 110.576C48.0442 111.499 49.8346 112.254 51.6224 112.701C58.0664 114.312 64.1023 113.909 69.2517 111.651C69.2832 112.567 69.3078 113.442 69.3286 114.198C69.3628 115.423 69.3964 116.625 69.4415 117.749C69.7465 125.348 70.2635 131.256 71.7953 135.39C71.8792 135.618 71.9924 135.964 72.112 136.332C72.8759 138.672 74.1541 142.588 77.4048 145.656C80.7718 148.834 84.8438 149.809 88.5733 149.808C90.4437 149.808 92.2284 149.563 93.7935 149.228C99.3735 148.032 105.71 146.21 110.294 139.683C114.628 133.512 116.735 124.219 117.116 109.575C117.166 109.161 117.211 108.765 117.255 108.388C117.285 108.134 117.315 107.874 117.346 107.615L118.367 107.705L118.63 107.722C124.313 107.981 131.262 106.776 135.53 104.794C138.902 103.229 149.708 97.5241 147.164 89.8214Z" fill="black"/>
<path d="M137.446 91.3197C120.549 94.8052 119.387 89.0841 119.387 89.0841C137.228 62.6107 144.686 29.0067 138.25 20.7823C120.691 -1.65234 90.2965 8.95778 89.7893 9.23324L89.626 9.26247C86.2876 8.56946 82.5515 8.15661 78.3524 8.08808C70.7065 7.96278 64.9068 10.0925 60.5059 13.4299C60.5059 13.4299 6.28424 -8.90726 8.80602 41.5231C9.34248 52.2518 24.1832 122.701 41.8847 101.422C48.3545 93.6412 54.6057 87.0622 54.6057 87.0622C57.7107 89.1247 61.4276 90.1768 65.3243 89.7989L65.627 89.542C65.533 90.5081 65.576 91.453 65.7483 92.5716C61.1881 97.6666 62.5281 98.5611 53.4122 100.438C44.1881 102.339 49.6069 105.723 53.1448 106.607C57.4339 107.68 67.3567 109.199 74.0614 99.8138L73.794 100.885C75.5807 102.316 76.8354 110.193 76.6251 117.335C76.4148 124.476 76.2744 129.379 77.6823 133.208C79.0901 137.038 80.4933 145.654 92.477 143.086C102.49 140.94 107.679 135.38 108.401 126.104C108.914 119.509 110.073 120.484 110.146 114.588L111.076 111.797C112.148 102.858 111.246 99.974 117.416 101.315L118.915 101.447C123.455 101.654 129.398 100.717 132.886 99.0956C140.397 95.6101 144.851 89.7905 137.446 91.3197H137.446Z" fill="#336791"/>
<path d="M63.6798 46.321C62.1574 46.109 60.7781 46.3052 60.0804 46.8333C59.6877 47.1306 59.5664 47.4749 59.5338 47.7121C59.4461 48.3399 59.8862 49.0339 60.1563 49.392C60.9208 50.4055 62.0381 51.1022 63.144 51.2557C63.3042 51.2779 63.4634 51.2886 63.622 51.2886C65.4662 51.2886 67.1425 49.8529 67.2903 48.7931C67.475 47.4658 65.5482 46.581 63.6798 46.321Z" fill="white"/>
<path d="M114.125 46.363C113.98 45.3226 112.128 45.026 110.371 45.2702C108.617 45.5148 106.916 46.3065 107.058 47.3492C107.172 48.1602 108.635 49.5445 110.369 49.5441C110.515 49.5441 110.663 49.5344 110.812 49.5136C111.968 49.3533 112.817 48.6187 113.22 48.1951C113.835 47.5501 114.19 46.8306 114.125 46.363Z" fill="white"/>
<path d="M143.069 90.9235C142.425 88.9751 140.351 88.3479 136.906 89.0598C126.676 91.171 123.012 89.7084 121.809 88.8226C129.761 76.7085 136.302 62.066 139.831 48.4037C141.503 41.9322 142.426 35.9222 142.502 31.0237C142.585 25.6463 141.67 21.6955 139.781 19.2819C132.166 9.55155 120.99 4.33232 107.461 4.18888C98.1608 4.08441 90.3029 6.46476 88.7795 7.13392C85.5715 6.3361 82.0742 5.84632 78.2672 5.78384C71.285 5.67097 65.2502 7.34252 60.2533 10.7495C58.0829 9.94189 52.4737 8.01639 45.6145 6.91154C33.755 5.00181 24.3314 6.44863 17.6062 11.213C9.58171 16.8982 5.87715 27.0605 6.59502 41.4172C6.83655 46.2478 9.58843 61.1066 13.9319 75.337C19.649 94.0664 25.8632 104.669 32.4023 106.85C33.1675 107.106 34.0503 107.284 35.0232 107.284C37.4085 107.284 40.3327 106.209 43.3755 102.551C48.4295 96.4709 53.1482 91.3759 54.8876 89.5247C57.4581 90.9046 60.2815 91.6749 63.1701 91.7522C63.1752 91.8278 63.1829 91.9033 63.1896 91.9786C62.6101 92.6659 62.1348 93.2682 61.7297 93.7825C59.7286 96.3227 59.312 96.8515 52.8704 98.178C51.0383 98.556 46.1711 99.559 46.1002 102.97C46.0226 106.697 51.8525 108.263 52.517 108.429C54.8318 109.008 57.0617 109.294 59.1884 109.294C64.361 109.294 68.9124 107.594 72.5501 104.305C72.4379 117.592 72.9922 130.686 74.5875 134.675C75.8939 137.941 79.0861 145.922 89.1695 145.921C90.6486 145.921 92.2775 145.749 94.069 145.365C104.592 143.109 109.162 138.458 110.93 128.204C111.876 122.725 113.499 109.638 114.262 102.619C115.874 103.122 117.948 103.352 120.191 103.352C124.868 103.352 130.265 102.358 133.65 100.787C137.452 99.0212 144.314 94.6878 143.069 90.9235ZM118.009 43.4912C117.974 45.5635 117.689 47.4446 117.387 49.4084C117.062 51.5204 116.725 53.7039 116.64 56.3547C116.557 58.9342 116.879 61.6162 117.191 64.2095C117.82 69.4479 118.466 74.8412 115.965 80.1628C115.576 79.4725 115.201 78.7194 114.857 77.8853C114.546 77.1318 113.872 75.9215 112.937 74.2462C109.301 67.726 100.787 52.457 105.146 46.2263C106.444 44.3713 109.738 42.4649 118.009 43.4912ZM107.984 8.38523C120.106 8.65296 129.694 13.1876 136.483 21.8624C141.69 28.5164 135.956 58.7931 119.358 84.9128C119.194 84.7045 119.027 84.4942 118.854 84.2786C118.785 84.1922 118.715 84.1046 118.644 84.0159C122.933 76.9323 122.095 69.9239 121.348 63.71C121.042 61.16 120.752 58.7515 120.826 56.4894C120.902 54.0909 121.219 52.0347 121.525 50.046C121.903 47.5951 122.286 45.0596 122.18 42.0702C122.259 41.7568 122.291 41.3863 122.25 40.9466C121.979 38.0798 118.707 29.5013 112.036 21.7358C108.388 17.4891 103.066 12.7361 95.801 9.53039C98.9261 8.88273 103.2 8.27874 107.984 8.38523ZM40.1557 99.8738C36.8035 103.904 34.4884 103.132 33.7272 102.878C28.7666 101.224 23.0112 90.7397 17.9368 74.1146C13.5459 59.7293 10.9798 45.2642 10.7769 41.2079C10.1356 28.3797 13.2453 19.4391 20.0198 14.6347C31.0448 6.81613 49.1712 11.4959 56.4547 13.8695C56.3499 13.9726 56.241 14.0694 56.1372 14.1742C44.1854 26.2449 44.469 46.8679 44.4982 48.1283C44.4972 48.6147 44.5378 49.3033 44.5939 50.2506C44.7995 53.719 45.1821 60.1748 44.1599 67.4858C43.2096 74.2795 45.3037 80.9291 49.9045 85.7294C50.3809 86.2262 50.878 86.6928 51.3917 87.1319C49.3435 89.3251 44.8929 94.1749 40.1557 99.8738ZM52.9278 82.8321C49.2196 78.9633 47.5356 73.5815 48.3069 68.0656C49.3865 60.3424 48.9878 53.6162 48.7738 50.0027C48.7439 49.4971 48.7174 49.0541 48.7016 48.7044C50.4477 47.1564 58.5391 42.8207 64.3092 44.1429C66.9429 44.7462 68.5469 46.539 69.214 49.6234C72.6666 65.5909 69.6712 72.2462 67.2643 77.594C66.7682 78.6959 66.2996 79.7372 65.8992 80.8149L65.5891 81.6476C64.8037 83.7535 64.0731 85.7113 63.6203 87.5706C59.6785 87.5585 55.8436 85.8749 52.9278 82.8321ZM53.5328 104.366C52.382 104.079 51.3466 103.579 50.7393 103.165C51.2465 102.926 52.1495 102.602 53.7152 102.279C61.2933 100.719 62.4633 99.6181 65.019 96.3731C65.6052 95.6294 66.2693 94.7859 67.1891 93.7586L67.1901 93.7573C68.5603 92.2235 69.1868 92.4835 70.3233 92.9548C71.2444 93.3361 72.1413 94.4903 72.5051 95.7607C72.6771 96.3607 72.8706 97.4998 72.238 98.3856C66.8992 105.861 59.1199 105.765 53.5328 104.366ZM93.1912 141.271C83.9207 143.258 80.6384 138.527 78.4754 133.12C77.0793 129.629 76.3934 113.886 76.8801 96.5021C76.8865 96.2707 76.8536 96.0473 76.7898 95.8373C76.7343 95.4319 76.649 95.0217 76.5308 94.6089C75.8065 92.0794 74.0426 89.9634 71.9263 89.0863C71.0855 88.7379 69.5419 88.0987 67.6873 88.573C68.083 86.9434 68.7689 85.1036 69.5123 83.1109L69.8244 82.2724C70.1758 81.3275 70.6162 80.3486 71.0824 79.3126C73.6012 73.7168 77.0508 66.0527 73.3069 48.7383C71.9044 42.2533 67.2217 39.0866 60.1226 39.8219C55.8665 40.2623 51.9731 41.9795 50.0312 42.9641C49.6136 43.1757 49.2317 43.38 48.8749 43.5792C49.4168 37.0448 51.4649 24.8337 59.1253 17.1078C63.9481 12.2436 70.3716 9.84145 78.198 9.97078C93.6185 10.2234 103.507 18.1371 109.088 24.7316C113.896 30.4144 116.501 36.1385 117.54 39.2256C109.725 38.4312 104.409 39.9741 101.715 43.8261C95.8527 52.2053 104.922 68.4694 109.28 76.2856C110.079 77.7183 110.769 78.9562 110.986 79.4823C112.406 82.9221 114.243 85.2185 115.585 86.8951C115.996 87.4087 116.395 87.9069 116.698 88.3419C114.331 89.0245 110.08 90.601 110.467 98.4821C110.155 102.437 107.932 120.952 106.803 127.493C105.313 136.135 102.133 139.354 93.1912 141.271ZM131.887 96.9889C129.466 98.1125 125.416 98.9554 121.568 99.1361C117.318 99.3353 115.154 98.6601 114.646 98.2449C114.406 93.3337 116.235 92.8204 118.169 92.2772C118.473 92.1916 118.77 92.1086 119.056 92.0085C119.234 92.1533 119.429 92.297 119.642 92.4378C123.058 94.6925 129.151 94.9357 137.753 93.1604C137.784 93.1536 137.816 93.1476 137.847 93.1412C136.687 94.2259 134.702 95.6818 131.887 96.9889Z" fill="white"/>
</svg>
