<svg width="150" height="150" viewBox="0 0 150 150" fill="none" xmlns="http://www.w3.org/2000/svg">
<path d="M74.4609 9.84385C41.1797 9.84385 43.2844 24.2345 43.2844 24.2345V39.1876H74.9344V43.8751H30.6797C30.6797 43.8751 9.375 41.2501 9.375 75.0235C9.375 108.797 28.1859 107.424 28.1859 107.424H39.0469V91.6688C39.0469 91.6688 38.4375 72.8579 57.3281 72.8579H89.025C89.025 72.8579 106.706 73.1392 106.706 55.7392V27.1876C106.706 27.1876 109.387 9.7876 74.6344 9.7876L74.4609 9.84385ZM56.9672 19.861C58.0924 19.8326 59.2007 20.1386 60.152 20.7401C61.1033 21.3416 61.8549 22.2118 62.3117 23.2405C62.7684 24.2692 62.9099 25.4102 62.7182 26.5193C62.5264 27.6284 62.0101 28.6557 61.2344 29.4714C60.4588 30.287 59.4587 30.8543 58.3607 31.1015C57.2626 31.3487 56.1159 31.2648 55.0655 30.8603C54.0152 30.4557 53.1084 29.7488 52.4598 28.8289C51.8113 27.909 51.4501 26.8175 51.4219 25.6923V25.5985C51.4219 24.8512 51.5691 24.1112 51.855 23.4208C52.141 22.7304 52.5602 22.1031 53.0886 21.5747C53.617 21.0462 54.2444 20.6271 54.9348 20.3411C55.6252 20.0551 56.3652 19.9079 57.1125 19.9079L56.9672 19.861Z" fill="url(#paint0_linear_7_201)"/>
<path d="M75.3985 140.203C108.68 140.203 106.575 125.766 106.575 125.766V110.859H74.9297V106.172H119.32C119.32 106.172 140.625 108.553 140.625 74.9766C140.625 41.4 121.814 42.5766 121.814 42.5766H110.813V58.125C110.813 58.125 111.422 76.936 92.5313 76.936H60.8204C60.8204 76.936 43.1251 76.6688 43.1251 94.0688V122.813C43.1251 122.813 40.4438 140.213 75.1969 140.213H75.3844L75.3985 140.203ZM92.8922 130.139C91.7671 130.167 90.6587 129.862 89.7074 129.26C88.7561 128.658 88.0045 127.788 87.5478 126.76C87.091 125.731 86.9495 124.59 87.1413 123.481C87.333 122.372 87.8494 121.344 88.625 120.529C89.4006 119.713 90.4007 119.146 91.4988 118.899C92.5968 118.651 93.7436 118.735 94.7939 119.14C95.8442 119.544 96.751 120.251 97.3996 121.171C98.0482 122.091 98.4094 123.183 98.4376 124.308V124.448C98.4376 125.958 97.838 127.405 96.7708 128.472C95.7036 129.54 94.2562 130.139 92.7469 130.139H92.8922Z" fill="url(#paint1_linear_7_201)"/>
<defs>
<linearGradient id="paint0_linear_7_201" x1="22.3461" y1="22.6074" x2="84.6273" y2="84.7476" gradientUnits="userSpaceOnUse">
<stop stop-color="#387EB8"/>
<stop offset="1" stop-color="#366994"/>
</linearGradient>
<linearGradient id="paint1_linear_7_201" x1="59.1915" y1="63.0871" x2="130.349" y2="125.209" gradientUnits="userSpaceOnUse">
<stop stop-color="#FFE052"/>
<stop offset="1" stop-color="#FFC331"/>
</linearGradient>
</defs>
</svg>
