<svg width="150" height="150" viewBox="0 0 150 150" fill="none" xmlns="http://www.w3.org/2000/svg">
<g id="Frame">
<g id="SVGRepo_iconCarrier">
<path id="Vector" d="M87.5573 74.8869C87.5573 68.1575 81.9356 62.7014 75 62.7014C68.0653 62.7014 62.4426 68.1575 62.4426 74.8869C62.4426 81.6172 68.0653 87.0728 75 87.0728C81.9356 87.0728 87.5573 81.6172 87.5573 74.8869Z" fill="#53C1DE"/>
<path id="Vector_2" fill-rule="evenodd" clip-rule="evenodd" d="M115.783 52.2641C118.435 41.8073 121.768 22.4163 110.017 15.8421C98.3217 9.29661 83.1019 21.839 75.0652 29.3675C67.0519 21.914 51.4045 9.42525 39.6639 16.0203C27.9727 22.5877 31.578 41.6573 34.2886 52.1796C23.3827 55.1854 4.6875 61.6595 4.6875 74.887C4.6875 88.0769 23.3632 95.1206 34.2046 98.1235C31.484 108.704 28.0592 127.501 39.7653 134.054C51.5498 140.648 67.1484 128.456 75.2597 120.845C83.348 128.418 98.4216 140.69 110.12 134.118C121.854 127.526 118.798 108.395 116.087 97.812C126.597 94.8025 145.312 87.9122 145.312 74.887C145.312 61.7867 126.517 55.26 115.783 52.2641ZM114.451 92.2034C112.671 86.7361 110.269 80.922 107.33 74.9161C110.135 69.0518 112.444 63.3128 114.174 57.8806C122.043 60.0945 139.305 65.1542 139.305 74.887C139.305 84.7113 122.74 89.8188 114.451 92.2034ZM107.109 129.073C98.3813 133.976 85.4161 122.241 79.4428 116.664C83.4056 112.458 87.3656 107.569 91.2305 102.139C98.0292 101.554 104.452 100.597 110.276 99.2907C112.184 106.777 115.876 124.149 107.109 129.073ZM42.767 129.003C34.038 124.119 38.0277 107.345 40.0292 99.5516C45.7891 100.788 52.1653 101.678 58.98 102.214C62.8702 107.527 66.945 112.41 71.0513 116.686C65.978 121.449 51.5367 133.91 42.767 129.003ZM10.6945 74.887C10.6945 65.0261 27.8535 60.003 35.9017 57.7948C37.6618 63.3489 39.9701 69.1564 42.7558 75.0291C39.934 80.9891 37.5927 86.8885 35.8165 92.5084C28.1423 90.3766 10.6945 84.7539 10.6945 74.887ZM42.6736 21.0654C51.4383 16.1424 65.0377 28.1321 70.8558 33.5286C66.7706 37.7856 62.7333 42.6321 58.8764 47.9142C52.2628 48.5091 45.9316 49.4642 40.1114 50.744C37.9277 42.2573 33.9184 25.9832 42.6736 21.0654ZM95.528 54.2504C100.015 54.7998 104.314 55.5307 108.35 56.4249C107.138 60.1939 105.628 64.1352 103.849 68.1754C101.271 63.4277 98.5027 58.7753 95.528 54.2504ZM75.067 37.6944C77.8378 40.6072 80.6128 43.8599 83.3428 47.3887C77.8055 47.1345 72.2592 47.1335 66.7219 47.385C69.4542 43.8889 72.2531 40.641 75.067 37.6944ZM46.2023 68.1712C44.4529 64.1451 42.9562 60.1864 41.7338 56.3634C45.7462 55.4922 50.025 54.7801 54.4828 54.2396C51.4997 58.7546 48.7364 63.4052 46.2023 68.1712ZM54.6108 95.9505C50.0058 95.4518 45.6622 94.7757 41.6511 93.9285C42.8927 90.0383 44.4224 85.9944 46.2092 81.8814C48.7781 86.6971 51.5836 91.3928 54.6108 95.9505ZM75.2334 112.491C72.3863 109.51 69.5461 106.212 66.7725 102.666C72.3412 102.878 77.9208 102.878 83.4891 102.637C80.7506 106.249 77.9855 109.551 75.2334 112.491ZM103.906 81.6722C105.786 85.8297 107.37 89.8516 108.629 93.6761C104.551 94.5792 100.149 95.3063 95.5111 95.8463C98.5078 91.2356 101.32 86.5109 103.906 81.6722ZM87.878 96.5528C79.3598 97.1435 70.7888 97.1369 62.2678 96.6012C57.4261 89.7381 53.1159 82.5204 49.3955 75.0273C53.0981 67.5496 57.3769 60.346 62.1956 53.4937C70.7227 52.8683 79.3022 52.8664 87.8292 53.4974C92.6067 60.3492 96.8789 67.5341 100.667 74.9442C96.9239 82.4181 92.6227 89.6363 87.878 96.5528ZM107.017 20.8921C115.784 25.7991 111.882 43.2263 109.966 50.8046C104.132 49.498 97.7967 48.5259 91.1639 47.9217C87.2995 42.5826 83.2959 37.7276 79.2769 33.5256C85.1695 28.0128 98.3348 16.0332 107.017 20.8921Z" fill="#53C1DE"/>
</g>
</g>
</svg>
