<svg width="150" height="150" viewBox="0 0 150 150" fill="none" xmlns="http://www.w3.org/2000/svg">
<path d="M42.1875 64.2187C46.5625 46.7187 57.5 37.9688 75 37.9688C101.25 37.9688 104.531 57.6562 117.656 60.9375C126.406 63.125 134.062 59.8437 140.625 51.0937C136.25 68.5937 125.312 77.3438 107.812 77.3438C81.5625 77.3438 78.2812 57.6562 65.1562 54.375C56.4062 52.1875 48.75 55.4687 42.1875 64.2187ZM9.375 103.594C13.75 86.0938 24.6875 77.3438 42.1875 77.3438C68.4375 77.3438 71.7188 97.0312 84.8438 100.312C93.5938 102.5 101.25 99.2187 107.812 90.4687C103.438 107.969 92.5 116.719 75 116.719C48.75 116.719 45.4688 97.0312 32.3438 93.75C23.5938 91.5625 15.9375 94.8438 9.375 103.594Z" fill="#44A8B3"/>
</svg>
