<?xml version="1.0" standalone="no"?>
<!DOCTYPE svg PUBLIC "-//W3C//DTD SVG 20010904//EN"
 "http://www.w3.org/TR/2001/REC-SVG-20010904/DTD/svg10.dtd">
<svg version="1.0" xmlns="http://www.w3.org/2000/svg"
 width="381.000000pt" height="381.000000pt" viewBox="0 0 381.000000 381.000000"
 preserveAspectRatio="xMidYMid meet">
<metadata>
Created by potrace 1.11, written by Peter Selinger 2001-2013
</metadata>
<g transform="translate(0.000000,381.000000) scale(0.100000,-0.100000)"
fill="#000000" stroke="none">
<path d="M2 3003 l3 -188 360 0 c198 0 362 -3 365 -7 3 -4 5 -492 5 -1085 -1
-593 1 -1084 3 -1090 3 -10 49 -13 183 -13 l179 0 0 1095 c0 869 3 1095 13
1096 6 0 170 1 364 1 254 0 353 3 355 12 2 6 4 90 3 186 l0 175 -918 3 -917 2
2 -187z"/>
<path d="M2027 1917 c0 -699 1 -1278 2 -1284 1 -10 44 -13 181 -13 l179 0 0
528 c0 290 0 542 1 559 0 30 16 13 207 -215 114 -136 217 -258 229 -272 12
-14 106 -126 209 -250 103 -124 206 -247 229 -274 22 -27 45 -55 49 -62 6 -11
55 -14 253 -14 l244 0 -197 237 c-109 131 -200 240 -203 243 -4 3 -73 86 -155
185 -82 99 -152 182 -155 185 -3 3 -95 113 -204 245 -110 132 -206 248 -215
258 -14 17 -14 20 -1 30 8 7 30 30 49 52 19 22 55 63 80 91 25 28 75 84 111
124 36 40 70 78 75 84 9 9 198 221 290 325 16 19 40 45 52 58 12 13 50 56 85
95 35 39 120 134 189 212 l126 141 -236 3 -236 3 -40 -44 c-56 -61 -176 -196
-198 -221 -10 -12 -46 -52 -81 -91 -35 -38 -123 -137 -196 -220 -73 -82 -147
-166 -164 -185 -17 -19 -68 -77 -113 -128 l-83 -92 0 52 c-1 29 -1 250 -1 491
l0 437 -182 0 -182 0 2 -1273z"/>
</g>
</svg>
