<svg width="50" height="50" viewBox="0 0 50 50" fill="none" xmlns="http://www.w3.org/2000/svg">
<path d="M40.1458 11.1041C37.375 9.81248 34.375 8.87498 31.25 8.33331C31.1951 8.3341 31.1426 8.35656 31.1042 8.39581C30.7292 9.08331 30.2917 9.97915 30 10.6666C26.6854 10.167 23.3146 10.167 20 10.6666C19.7083 9.95831 19.2708 9.08331 18.875 8.39581C18.8542 8.35415 18.7917 8.33331 18.7292 8.33331C15.6042 8.87498 12.625 9.81248 9.83334 11.1041C9.8125 11.1041 9.79167 11.125 9.77084 11.1458C4.10417 19.625 2.54167 27.875 3.31251 36.0416C3.31251 36.0833 3.33334 36.125 3.37501 36.1458C7.125 38.8958 10.7292 40.5625 14.2917 41.6666C14.3542 41.6875 14.4167 41.6666 14.4375 41.625C15.2708 40.4791 16.0208 39.2708 16.6667 38C16.7083 37.9166 16.6667 37.8333 16.5833 37.8125C15.3958 37.3541 14.2708 36.8125 13.1667 36.1875C13.0833 36.1458 13.0833 36.0208 13.1458 35.9583C13.375 35.7916 13.6042 35.6041 13.8333 35.4375C13.875 35.3958 13.9375 35.3958 13.9792 35.4166C21.1458 38.6875 28.875 38.6875 35.9583 35.4166C36 35.3958 36.0625 35.3958 36.1042 35.4375C36.3333 35.625 36.5625 35.7916 36.7917 35.9791C36.875 36.0416 36.875 36.1666 36.7708 36.2083C35.6875 36.8541 34.5417 37.375 33.3542 37.8333C33.2708 37.8541 33.25 37.9583 33.2708 38.0208C33.9375 39.2916 34.6875 40.5 35.5 41.6458C35.5625 41.6666 35.625 41.6875 35.6875 41.6666C39.2708 40.5625 42.875 38.8958 46.625 36.1458C46.6667 36.125 46.6875 36.0833 46.6875 36.0416C47.6042 26.6041 45.1667 18.4166 40.2292 11.1458C40.2083 11.125 40.1875 11.1041 40.1458 11.1041ZM17.75 31.0625C15.6042 31.0625 13.8125 29.0833 13.8125 26.6458C13.8125 24.2083 15.5625 22.2291 17.75 22.2291C19.9583 22.2291 21.7083 24.2291 21.6875 26.6458C21.6875 29.0833 19.9375 31.0625 17.75 31.0625ZM32.2708 31.0625C30.125 31.0625 28.3333 29.0833 28.3333 26.6458C28.3333 24.2083 30.0833 22.2291 32.2708 22.2291C34.4792 22.2291 36.2292 24.2291 36.2083 26.6458C36.2083 29.0833 34.4792 31.0625 32.2708 31.0625Z" fill="black"/>
</svg>
