<svg width="50" height="50" viewBox="0 0 50 50" fill="none" xmlns="http://www.w3.org/2000/svg">
<g clip-path="url(#clip0_238_79)">
<path d="M1.06253 24.7008C1.06136 28.9017 2.15904 33.0037 4.24625 36.6192L0.862915 48.9723L13.5048 45.6576C17.0014 47.561 20.919 48.5584 24.9001 48.5587H24.9106C38.053 48.5587 48.7513 37.8643 48.7569 24.7196C48.7594 18.35 46.2811 12.3605 41.7784 7.85427C37.2765 3.34845 31.2891 0.8657 24.9096 0.862793C11.7656 0.862793 1.06815 11.5566 1.06272 24.7008" fill="url(#paint0_linear_238_79)"/>
<path d="M0.211149 24.693C0.209792 29.0452 1.34681 33.2938 3.50844 37.0388L0.00378418 49.8347L13.0989 46.4012C16.7071 48.3684 20.7695 49.4056 24.9032 49.4072H24.9139C38.5278 49.4072 49.6104 38.3281 49.6162 24.7128C49.6185 18.1143 47.0511 11.9095 42.3875 7.24186C37.7234 2.57481 31.5218 0.00271318 24.9139 0C11.2976 0 0.216575 11.0775 0.211149 24.693ZM8.00979 36.3938L7.52084 35.6176C5.46541 32.3494 4.38053 28.5727 4.38208 24.6946C4.38634 13.3777 13.5964 4.17054 24.9216 4.17054C30.4061 4.17287 35.5604 6.31085 39.4371 10.1899C43.3137 14.0694 45.4468 19.2264 45.4455 24.7112C45.4404 36.0281 36.2301 45.2364 24.9139 45.2364H24.9057C21.221 45.2345 17.6073 44.245 14.4557 42.375L13.7057 41.9302L5.93479 43.9676L8.00979 36.3938Z" fill="url(#paint1_linear_238_79)"/>
<path d="M18.7398 14.3698C18.2774 13.3421 17.7908 13.3213 17.3511 13.3033C16.991 13.2878 16.5794 13.289 16.1681 13.289C15.7565 13.289 15.0877 13.4438 14.5224 14.0611C13.9565 14.6789 12.3619 16.1719 12.3619 19.2085C12.3619 22.2452 14.5738 25.18 14.8821 25.5923C15.1908 26.0037 19.1521 32.4347 25.4257 34.9087C30.6397 36.9647 31.7007 36.5558 32.8323 36.4527C33.9641 36.35 36.4842 34.9601 36.9984 33.5188C37.5129 32.0777 37.5129 30.8424 37.3586 30.5843C37.2044 30.3271 36.7928 30.1727 36.1755 29.8642C35.5583 29.5556 32.5236 28.0622 31.9579 27.8562C31.392 27.6504 30.9805 27.5477 30.5689 28.1657C30.1573 28.7828 28.9753 30.1727 28.615 30.5843C28.2552 30.9969 27.8949 31.0483 27.2778 30.7395C26.6602 30.4299 24.6724 29.7789 22.3141 27.6764C20.4792 26.0403 19.2404 24.02 18.8803 23.4019C18.5203 22.7849 18.8418 22.4504 19.1513 22.1428C19.4286 21.8663 19.7687 21.4221 20.0776 21.0618C20.3854 20.7014 20.4881 20.4442 20.6939 20.0326C20.8999 19.6205 20.7968 19.2601 20.6428 18.9514C20.4881 18.6426 19.2887 15.5901 18.7398 14.3698Z" fill="white"/>
</g>
<defs>
<linearGradient id="paint0_linear_238_79" x1="2395.56" y1="4811.81" x2="2395.56" y2="0.862793" gradientUnits="userSpaceOnUse">
<stop stop-color="#1FAF38"/>
<stop offset="1" stop-color="#60D669"/>
</linearGradient>
<linearGradient id="paint1_linear_238_79" x1="2480.62" y1="4983.47" x2="2480.62" y2="0" gradientUnits="userSpaceOnUse">
<stop stop-color="#F9F9F9"/>
<stop offset="1" stop-color="white"/>
</linearGradient>
<clipPath id="clip0_238_79">
<rect width="49.62" height="50" fill="white"/>
</clipPath>
</defs>
</svg>
