<svg width="50" height="50" viewBox="0 0 50 50" fill="none" xmlns="http://www.w3.org/2000/svg">
<g id="mdi:moon-waning-crescent">
<path id="Vector" d="M4.1665 25C4.16631 28.2712 4.9364 31.4964 6.41444 34.4146C7.89248 37.3328 10.0369 39.8619 12.6742 41.7973C15.3114 43.7326 18.3673 45.0197 21.5945 45.5544C24.8216 46.0891 28.1293 45.8564 31.2498 44.875C27.0198 43.5457 23.3242 40.9014 20.7007 37.3269C18.0771 33.7523 16.6625 29.434 16.6625 25C16.6625 20.566 18.0771 16.2477 20.7007 12.6731C23.3242 9.09861 27.0198 6.45435 31.2498 5.12501C28.1293 4.14366 24.8216 3.91091 21.5945 4.44561C18.3673 4.98031 15.3114 6.26742 12.6742 8.20274C10.0369 10.1381 7.89248 12.6672 6.41444 15.5854C4.9364 18.5036 4.16631 21.7288 4.1665 25Z" fill="#F7F7F7"/>
</g>
</svg>
