<svg width="50" height="50" viewBox="0 0 50 50" fill="none" xmlns="http://www.w3.org/2000/svg">
<path d="M7.39584 39.7708L10.3333 42.7083L14.0833 38.9791L11.125 36.0208M25 12.5C18.1042 12.5 12.5 18.1041 12.5 25C12.5 31.8958 18.1042 37.5 25 37.5C31.8958 37.5 37.5 31.8958 37.5 25C37.5 18.0833 31.8958 12.5 25 12.5ZM41.6667 27.0833H47.9167V22.9166H41.6667M35.9167 38.9791L39.6667 42.7083L42.6042 39.7708L38.875 36.0208M42.6042 10.4166L39.6667 7.49998L35.9167 11.2291L38.875 14.1875M27.0833 2.08331H22.9167V8.33331H27.0833M14.0833 11.2291L10.3333 7.49998L7.39584 10.4166L11.125 14.1875L14.0833 11.2291ZM2.08334 27.0833H8.33334V22.9166H2.08334M27.0833 41.6666H22.9167V47.9166H27.0833" fill="white"/>
</svg>
